<svg xmlns="http://www.w3.org/2000/svg" viewBox="0 0 512 512" role="img" aria-label="Star Ranker">
  <defs>
    <linearGradient id="srGold" x1="0" y1="0" x2="1" y2="1">
      <stop offset="0%"  stop-color="#FCD34D"/>
      <stop offset="55%" stop-color="#F59E0B"/>
      <stop offset="100%" stop-color="#B45309"/>
    </linearGradient>
    <linearGradient id="srInk" x1="0" y1="0" x2="0" y2="1">
      <stop offset="0%" stop-color="#0F172A"/>
      <stop offset="100%" stop-color="#020617"/>
    </linearGradient>
    <radialGradient id="srGlow" cx="50%" cy="50%" r="50%">
      <stop offset="0%"  stop-color="#FCD34D" stop-opacity="0.55"/>
      <stop offset="100%" stop-color="#FCD34D" stop-opacity="0"/>
    </radialGradient>
  </defs>
  <g transform="translate(256 256)">
    <circle r="240" fill="url(#srInk)"/>
    <circle r="240" fill="url(#srGlow)" opacity="0.85"/>
    <path d="M 0 -210 L 38 -64 L 184 -84 L 70 18 L 168 132 L 24 92 L 0 240 L -24 92 L -168 132 L -70 18 L -184 -84 L -38 -64 Z"
      fill="url(#srGold)" stroke="#FDE68A" stroke-width="2" stroke-linejoin="round"/>
    <g transform="translate(-60 28)" fill="#020617" opacity="0.92">
      <rect x="0"   y="-10"  width="22" height="40" rx="3"/>
      <rect x="32"  y="-32"  width="22" height="62" rx="3"/>
      <rect x="64"  y="-66"  width="22" height="96" rx="3"/>
      <rect x="96"  y="-48"  width="22" height="78" rx="3"/>
    </g>
    <circle r="138" fill="none" stroke="#FDE68A" stroke-opacity="0.18" stroke-width="1.2"/>
  </g>
</svg>
